<?xml version="1.0" encoding="utf-8"?>
<!-- Generator: Adobe Illustrator 15.0.2, SVG Export Plug-In . SVG Version: 6.00 Build 0)  -->
<!DOCTYPE svg PUBLIC "-//W3C//DTD SVG 1.1//EN" "http://www.w3.org/Graphics/SVG/1.1/DTD/svg11.dtd">
<svg version="1.1" id="Layer_1" xmlns="http://www.w3.org/2000/svg" xmlns:xlink="http://www.w3.org/1999/xlink" x="0px" y="0px"
	 width="16.439px" height="15.707px" viewBox="0 0 16.439 15.707" enable-background="new 0 0 16.439 15.707" xml:space="preserve">
<g>
	<path d="M16.439,0.909c0,0.505-0.429,0.909-0.908,0.909h-0.127l-2.728,13.889H3.839L1.136,1.818H0.909C0.403,1.818,0,1.414,0,0.909
		S0.403,0,0.909,0h14.62C16.01,0,16.439,0.404,16.439,0.909z M3.485,1.818h-0.96l0.151,0.808L3.485,1.818z M2.879,3.687l0.354,1.718
		l0.53,0.53l1.566-1.565L3.762,2.828L2.879,3.687z M4.116,9.974l1.213-1.211L3.762,7.222L3.611,7.373L4.116,9.974z M7.146,1.818
		H4.773L4.394,2.173L5.96,3.737l1.564-1.564L7.146,1.818z M5.96,8.132l1.564-1.565L5.96,5.025L4.394,6.566L5.96,8.132z
		 M4.394,10.985l1.565,1.541l1.564-1.541L5.96,9.42L4.394,10.985z M4.975,14.343h1.516l-1.868-1.869L4.975,14.343z M9.722,4.369
		L8.158,2.828L6.617,4.369l1.541,1.565L9.722,4.369z M6.616,8.763l1.541,1.564l1.564-1.564L8.157,7.222L6.616,8.763z M6.616,13.181
		l1.161,1.162h0.759l1.187-1.162l-1.564-1.564L6.616,13.181z M11.541,1.818H9.167L8.812,2.173l1.54,1.564l1.565-1.564L11.541,1.818z
		 M10.353,8.132l1.566-1.565l-1.566-1.541l-1.54,1.541L10.353,8.132z M11.92,10.985L10.353,9.42l-1.54,1.565l1.54,1.541
		L11.92,10.985z M9.823,14.343h1.718l0.429-2.121L9.823,14.343z M13.611,3.864l-1.061-1.035L11.01,4.37l1.54,1.564l0.809-0.782
		L13.611,3.864z M12.879,7.552l-0.328-0.328l-1.54,1.539l1.363,1.39L12.879,7.552z M14.015,1.818h-1.187l0.983,0.959L14.015,1.818z"
		/>
</g>
</svg>
